<?xml version="1.0" standalone="no"?><!DOCTYPE svg PUBLIC "-//W3C//DTD SVG 1.1//EN" "http://www.w3.org/Graphics/SVG/1.1/DTD/svg11.dtd"><svg class="icon" width="200px" height="200.00px" viewBox="0 0 1024 1024" version="1.1" xmlns="http://www.w3.org/2000/svg"><path fill="#ffffff" d="M949.08273 850.39508l-116.564809-166.348656c-13.682627-19.521612-35.800367-29.599132-57.970296-28.797883L774.547625 361.858468c0-58.34278-35.69292-108.348684-86.429465-129.390929l0-33.6811c25.079188-10.650571 42.670845-35.506678 42.670845-64.469314 0-38.664601-31.347962-70.012563-70.012563-70.012563L363.222535 64.304562c-38.664601 0-70.012563 31.347962-70.012563 70.012563 0 28.962635 17.591657 53.818743 42.670845 64.469314l0 33.6811c-50.735521 21.042245-86.429465 71.048149-86.429465 129.390929l0 51.543933c-2.731204 1.74576-5.373381 3.698229-7.897877 5.880941L87.900979 552.148395c-28.28623 24.461111-31.383778 67.219961-6.92369 95.506191 24.461111 28.28623 67.219961 31.383778 95.506191 6.92369l72.967872-63.096037 0 295.472502c0 38.664601 31.347962 70.012563 70.012563 70.012563l385.071146 0c38.664601 0 70.012563-31.347962 70.012563-70.012563L774.547625 837.302901l63.624063 90.807169c21.464871 30.622438 63.682391 38.053688 94.304829 16.588817C963.116351 923.252435 970.547601 881.033891 949.08273 850.39508zM154.342204 628.965945c-14.151301 12.238742-35.531238 10.68127-47.753607-3.453658-12.238742-14.151301-10.68127-35.531238 3.453658-47.753607l76.834946-66.441225 44.282552 51.223638L154.342204 628.965945zM611.968829 506.468007c-24.01495 15.052834-44.580335 36.196387-47.048549 44.772716-2.88777-8.751315-21.354354-29.317723-47.294143-44.353161-26.745131-15.490809-66.915016-29.982872-66.617234-68.77027 0.559748-70.590731 84.278475-84.786035 113.736391-23.961738 28.092825-58.390875 113.281019-47.223534 113.840768 23.542182C678.883845 476.466716 638.223796 490.014266 611.968829 506.468007zM807.617811 825.511343l-33.070186-47.198975 0-89.180112c11.501962-0.844228 23.143093 4.205788 30.242791 14.329357l58.282405 83.182514L807.617811 825.511343z" /></svg>