<?xml version="1.0" standalone="no"?><!DOCTYPE svg PUBLIC "-//W3C//DTD SVG 1.1//EN" "http://www.w3.org/Graphics/SVG/1.1/DTD/svg11.dtd"><svg class="icon" width="200px" height="200.00px" viewBox="0 0 1024 1024" version="1.1" xmlns="http://www.w3.org/2000/svg"><path fill="#ffffff" d="M586.437973 234.12736c9.530027 0 58.886827-90.002773 69.79584-104.32512 3.741013-4.969813 4.532907-6.10304 1.67936-9.680213-3.003733-3.672747-9.33888-2.6624-16.42496-0.628054-13.23008 3.8912-29.627733 0.191147-48.073386-5.16096-36.98688-10.676907-90.35776-25.613653-111.77984 13.421227-2.102613 3.741013-0.65536 0.98304 3.4816 5.5296 11.264 12.4928 58.627413 100.829867 68.307626 100.829867l33.01376 0.013653zM767.972693 560.37376l-82.261333 38.980267-4.450987 1.693013c-5.85728-10.390187-15.7696-17.24416-29.600426-17.24416H567.7056c-19.223893 0-48.482987-27.989333-71.63904-27.989333H413.832533c-33.792 0-64.006827 27.68896-81.032533 43.526826-26.282667 26.33728-79.121067 79.366827-79.121067 79.366827l128.57344 128.73728c21.039787-21.039787 45.79328-41.82016 67.269974-41.82016h167.840426c26.2144 0 52.26496-8.041813 70.77888-26.555733l139.195734-139.18208 39.553706-98.904747c-24.08448-24.111787-79.13472 1.67936-98.9184 59.392z m-120.436053 102.6048h-105.2672a39.826773 39.826773 0 0 1-37.4784-26.569387 39.062187 39.062187 0 0 0 34.24256 20.015787h102.946133c21.572267 0 39.062187-16.943787 39.062187-37.84704 0-14.336-8.31488-26.651307-20.452693-33.082027a39.785813 39.785813 0 0 1 26.86976 37.56032 39.922347 39.922347 0 0 1-39.922347 39.922347zM209.646933 641.870507l-83.913386 83.913386L321.549653 921.6l83.913387-83.913387-195.816107-195.816106zM226.317653 723.626667l-35.71712-35.730774 15.305387-15.305386 35.730773 35.71712L226.317653 723.626667zM780.438187 392.628907c-11.851093-50.640213-36.932267-103.71072-149.0944-171.66336-36.604587-22.213973-83.449173-16.87552-106.57792-4.519254-115.193173 61.617493-140.61568 125.5424-152.466774 176.196267-3.126613 13.39392-7.318187 35.744427-7.359146 60.648107a217.757013 217.757013 0 0 0 21.736106 94.65856c8.656213-3.454293 17.749333-5.7344 27.170134-5.7344h82.193066c23.18336 0 52.456107 27.97568 71.652694 27.97568h83.954346c13.830827 0 23.7568 6.853973 29.600427 17.257813l4.5056-1.706667 77.182293-36.590933a217.852587 217.852587 0 0 0 22.28224-95.941973c-0.013653-26.528427-1.611093-47.14496-4.778666-60.57984z m-141.666987 2.348373l-12.028587 27.36128h-30.26944v11.14112h40.22272l-9.95328 27.27936h-30.26944v24.139093l-30.72 11.250347v-35.38944h-38.693546v-27.27936h38.693546v-11.14112h-38.693546v-27.36128h34.338133l-51.869013-72.157867h34.256213l38.7072 50.640214 34.392747-51.063467h34.44736l-50.244267 72.58112h37.6832zM253.405867 262.662827h-28.54912v-28.535467H197.973333v28.535467h-28.54912v26.883413H197.973333v28.54912h26.883414v-28.54912h28.54912zM393.598293 164.754773h-28.54912v-28.535466h-26.883413v28.535466h-28.54912v26.883414h28.54912v28.54912h26.883413v-28.54912h28.54912z" /></svg>