<?xml version="1.0" standalone="no"?><!DOCTYPE svg PUBLIC "-//W3C//DTD SVG 1.1//EN" "http://www.w3.org/Graphics/SVG/1.1/DTD/svg11.dtd"><svg class="icon" width="200px" height="200.00px" viewBox="0 0 1024 1024" version="1.1" xmlns="http://www.w3.org/2000/svg"><path fill="#ffffff" d="M920.064 125.44 543.744 4.608c-20.48-6.656-43.008-6.656-63.488 0L103.936 125.44c-31.744 10.24-53.248 39.424-53.248 72.704l0 264.704c0 152.576 74.24 297.984 198.656 388.608l217.088 157.696c13.312 9.728 29.184 14.848 45.568 14.848 16.896 0 32.256-5.12 45.568-14.848l217.088-157.696c124.416-90.624 198.656-236.032 198.656-388.608L973.312 198.144C973.312 164.864 951.808 135.68 920.064 125.44zM761.344 683.008c-3.584 5.12-8.192 7.68-14.848 7.68-6.144 0-15.36-4.096-28.16-11.776-12.8-7.68-28.16-19.456-47.104-34.816-15.36-12.288-30.208-26.112-45.056-41.472-14.848-15.36-28.672-31.744-42.496-49.664l0 157.696c0 13.312-6.656 19.968-20.48 19.968-13.312 0-19.968-6.656-19.968-19.968l0-165.376c-12.288 16.384-26.112 32.768-40.96 48.128-14.848 15.36-30.72 29.696-46.592 43.008-42.496 33.28-70.656 49.664-83.456 49.664-3.072 0-5.632-0.512-7.68-1.536-2.048-1.024-4.096-2.56-5.632-4.096l0 28.672c0 14.336-7.168 20.992-20.992 20.992-13.824 0-20.48-7.168-20.48-20.992L317.44 456.704c-1.024 1.024-1.536 1.536-1.536 2.048l0-0.512L311.808 465.92c-10.24 17.408-16.896 28.16-20.48 31.232-3.584 2.56-7.168 4.608-10.752 5.632-3.584 1.536-7.168 2.048-11.264 2.048l-0.512-0.512c-3.072-0.512-6.144-2.048-8.704-4.608-2.56-2.048-4.096-5.12-5.12-9.216-1.024-3.584-0.512-8.192 1.024-13.312 1.536-5.12 4.608-11.264 9.216-17.92 22.016-32.768 39.424-65.536 53.248-97.792 13.312-32.768 24.576-67.584 32.256-105.472 5.12-20.992 12.8-31.232 23.04-31.232 13.312 0 19.968 8.704 19.968 25.6 0 7.68-3.584 24.064-11.264 49.664-3.072 11.264-6.656 22.528-10.752 34.304C368.128 345.6 363.52 357.376 358.4 368.64l0 285.696c5.12-6.144 13.312-11.264 24.064-16.384 10.752-5.12 22.016-12.8 34.816-22.016 12.8-9.728 26.112-20.992 39.936-33.792 12.288-11.264 24.064-23.04 35.328-35.84 11.264-12.8 22.016-26.112 32.256-39.424L386.56 506.88c-12.8 0-18.944-6.144-18.944-17.92 0-8.704 1.536-14.848 4.608-17.92 3.072-3.072 7.68-4.608 14.336-4.608l157.184 0 0-43.52-81.92 0c-15.36 0-26.624-3.584-33.28-10.752-6.656-7.168-10.24-18.944-10.24-35.328L418.304 290.304c0-15.872 3.584-27.136 10.752-34.304 7.168-7.168 17.92-10.752 32.768-10.752l204.288 0c15.36 0 26.112 3.584 32.256 10.24 6.656 6.656 9.728 18.432 9.728 35.328l0 85.504c0 16.384-3.584 28.16-10.24 35.328-6.656 7.168-17.408 10.752-32.256 10.752l-81.92 0L583.68 465.92l155.648 0c12.8 0 19.456 6.656 19.456 20.48 0 13.312-6.656 19.968-19.456 19.968l-144.384 0c10.752 13.824 22.016 27.136 33.792 40.448 11.776 13.312 23.552 25.6 34.304 35.84 13.824 13.312 27.136 25.088 39.936 35.328 12.8 10.24 25.088 17.92 36.352 24.064 17.408 10.752 26.112 19.968 26.112 27.648C766.464 673.792 764.928 677.888 761.344 683.008zM667.136 376.32 667.136 301.056c0-7.168-3.072-10.752-8.704-10.752L467.968 290.304c-5.632 0-8.704 3.584-8.704 10.752l0 75.264c0 7.168 3.072 10.752 8.704 10.752l190.976 0C664.576 387.072 667.136 383.488 667.136 376.32z" /></svg>