<?xml version="1.0" standalone="no"?><!DOCTYPE svg PUBLIC "-//W3C//DTD SVG 1.1//EN"
        "http://www.w3.org/Graphics/SVG/1.1/DTD/svg11.dtd">
<svg class="icon" width="200px" height="200.00px" viewBox="0 0 1024 1024" version="1.1"
     xmlns="http://www.w3.org/2000/svg">
    <path fill="#ffffff"
          d="M159.454642 964.238918 159.454642 964.238918c-20.522406 0-41.46846-6.349615-56.231699-17.174148-13.07376-9.381671-21.36561-26.272363-23.194258-47.054689-2.248204-25.25929 4.920056-50.66389 18.416442-64.951291 16.869203-17.754363 253.886361-243.494687 308.009026-295.022247l-24.880667-27.423583c-9.982352 1.152243-28.680203 2.741437-47.939849 2.741437-16.869203 0-30.786167-1.297552-41.330314-3.89675-7.02909-1.731434-19.117406-7.504928-50.746778-36.805254-19.964704-18.621103-44.282552-43.446511-68.324108-70.003354-21.227464-23.527856-91.094718-102.624309-100.795661-137.40751-12.792351-46.045709-6.325056-99.30368-5.201465-107.96392 0.281409-22.805402 10.401908-64.22986 46.954405-64.22986 23.194258 0 51.874461 18.041912 87.441515 54.990428 20.24202 20.928658 246.856247 252.157997 298.449299 304.69556l30.928407-32.763195c-13.496385-12.55699-33.458019-34.06484-37.815257-55.42738-5.9055-29.009707 0.561795-42.433438 13.354146-69.2809 1.26276-2.595105 2.529613-5.194302 3.934612-8.081049 21.931498-46.333258 183.879937-195.287755 211.712843-217.226416 8.295943-6.494924 17.011442-9.815553 26.00835-9.815553 15.040555 0 29.241998 9.815553 36.833907 25.4046 6.325056 12.989849 6.043646 26.702152-0.561795 35.792181-9.843182 13.281491-153.374156 164.835186-172.072007 184.462199-4.638647 6.061043-14.617929 23.093974-8.715499 29.30135 0.561795 0.576121 1.124614 1.010003 2.814092 1.010003 7.591909 0 19.680225-8.947789 24.318872-13.132088 8.857738-8.951883 155.903769-158.339238 169.119769-171.183777 7.449669-7.362688 16.307408-11.258415 25.723871-11.258415 17.573237 0 31.490202 13.570063 37.395702 26.847461s4.638647 26.702152-3.233648 35.938514c-12.372795 14.579043-160.681586 181.575452-167.009711 188.646498l-0.419556 0.579191c-1.970888 2.165316-10.825556 12.268418-4.076852 21.216207 0.982374 1.297552 1.686409 1.589195 3.091408 1.589195 6.325056 0 16.730033-7.074116 21.227464-10.970866 7.452739-7.650237 156.185178-158.048619 172.772972-175.080527 6.043646-6.061043 14.059204-9.381671 23.194258-9.381671 18.697851 0 40.34794 13.999852 48.221258 31.178093 4.920056 10.679223 3.795443 21.650089-2.952238 30.022781-0.704035 0.86367-1.686409 2.165316-3.091408 3.89675-41.472554 51.815109-79.991846 96.847745-114.435309 133.944642-92.499717 99.734492-126.800941 111.281479-144.513348 111.281479-2.251274 0-4.500501-0.14224-6.609535-0.576121-29.519314-5.918803-55.527664-23.673166-69.867254-35.074843l-34.3002 40.990576c51.170426 51.238988 288.328801 288.672632 299.154357 299.497165 9.982352 9.960863 19.259646 32.909527 17.993816 57.592696-1.124614 20.928658-9.700943 38.536688-24.880667 50.805106-13.920034 11.259438-32.333406 17.46579-51.874461 17.46579-21.511943 0-40.768519-7.507998-50.469462-19.776416-9.558703-11.976776-175.444824-202.934922-270.616394-312.196395L212.314547 944.031691C200.222137 957.167872 181.52838 964.238918 159.454642 964.238918L159.454642 964.238918z"/>
</svg>