<?xml version="1.0" standalone="no"?><!DOCTYPE svg PUBLIC "-//W3C//DTD SVG 1.1//EN" "http://www.w3.org/Graphics/SVG/1.1/DTD/svg11.dtd"><svg class="icon" width="200px" height="200.00px" viewBox="0 0 1024 1024" version="1.1" xmlns="http://www.w3.org/2000/svg"><path fill="#ffffff" d="M870.4 147.2C774.4 51.2 646.4 0 512 0 230.4 0 6.4 224 6.4 505.6v268.8c0 25.6 19.2 51.2 44.8 51.2 25.6 0 44.8-19.2 51.2-44.8V512c0-224 185.6-409.6 409.6-409.6 108.8 0 211.2 44.8 288 121.6 76.8 76.8 121.6 179.2 121.6 288v268.8c0 25.6 19.2 51.2 44.8 51.2 25.6 0 44.8-19.2 51.2-44.8V518.4c0-147.2-51.2-275.2-147.2-371.2zM864 672v-6.4c-6.4-51.2-57.6-147.2-204.8-147.2-19.2 0-38.4 6.4-57.6 25.6-19.2 12.8-25.6 32-25.6 51.2v352c0 44.8 32 76.8 76.8 76.8 147.2 0 198.4-96 204.8-147.2v-6.4l6.4-198.4z m-192 256V614.4c76.8 6.4 89.6 51.2 96 57.6v192c0 6.4-6.4 57.6-96 64zM364.8 518.4c-147.2 0-198.4 96-204.8 147.2V876.8c6.4 51.2 57.6 147.2 204.8 147.2 44.8 0 83.2-32 83.2-76.8V595.2c0-19.2-12.8-38.4-25.6-57.6-12.8-12.8-32-19.2-57.6-19.2z m-12.8 409.6c-83.2-6.4-96-51.2-96-57.6v-192s6.4-57.6 96-64v313.6z" /></svg>