<?xml version="1.0" standalone="no"?><!DOCTYPE svg PUBLIC "-//W3C//DTD SVG 1.1//EN" "http://www.w3.org/Graphics/SVG/1.1/DTD/svg11.dtd"><svg class="icon" width="200px" height="200.00px" viewBox="0 0 1024 1024" version="1.1" xmlns="http://www.w3.org/2000/svg"><path fill="#ffffff" d="M218.1 468.7c18.3 23.9 26.1 59.1 23.4 105.7v-0.1c28.6-13.9 58.1-25.6 88.7-34.9 129.6-39.2 262.1-35.2 397.6 12l55.8 22.9c-2-25.9-1-48.2 3-66.8 4-18.6 11.3-33.7 21.9-45.3 10.7-11.6 21.8-20.9 33.4-27.9 11.6-7 26.1-13.5 43.3-19.4 0-21.9-1.8-43.5-5.5-64.8-3.6-21.3-9.1-41.4-16.5-60.3-7.3-18.9-16-34.4-25.9-46.3-15.9-19.3-38.8-36.4-68.8-51.3-29.9-14.9-63.1-26.9-99.7-35.9-36.5-9-75.9-14.3-118.1-15.9-42.2-1.6-83.6-0.1-124.1 4.5s-79.2 13.9-116.1 27.9c-36.9 14-68.8 31.4-95.7 52.3-26.9 20.9-47.2 47.8-60.8 80.7-13.6 32.9-18.4 69.3-14.4 109.1 34.1 11.9 60.2 29.9 78.5 53.8z m89.1-273.2c34.4-13.3 119.4-17.2 163.9-18.2 15.8-0.4 25.1 8.9 21.2 20.9l-6.6 20c-3 9.1-13 17.5-25.3 21.1l-129.1 38.8c-20 6-37.5-1.6-36.5-16 2.1-27.7 6.1-64.2 12.4-66.6zM955.1 514.6c-4-17.9-12.8-32.4-26.4-43.3-13.6-10.9-28.2-17.1-43.8-18.4-15.6-1.3-30.6 3.3-44.8 14-14.3 10.7-24.4 26.6-30.4 47.8-3.3 14.6-3.6 26.4-1 35.4 2.7 9 3.7 19.9 3 32.9-0.7 13-4.6 25.4-12 37.4-5.3-5.3-26.2-14.9-62.8-28.9-136.2-52.5-273.7-58.8-412.6-18.9-37.2 10.6-73.8 24.6-109.6 41.9l-0.1-0.1c14.6-61.8 6-108-25.9-138.5-23.3-21.9-48.5-27.2-75.7-15.9-28.6 12-44.5 39.2-47.8 81.7-4.7 45.8 1.5 94.7 18.4 146.5s35.7 95.4 56.3 130.6c0.7 0.7 2.2 1.3 4.5 2s4.3 1.3 6 2c1.7 0.7 3.5 1 5.5 1h18.9v33.9c0 4.7 1.7 9.1 5 13.5 3.3 4.3 7.8 7.6 13.5 10 5.7 2.3 11.8 3.5 18.4 3.5 10.6 0 19.6-2.7 26.9-8 7.3-5.3 11-11.6 11-18.9v-33.9h525.2v33.9c0 3.3 1 6.8 3 10.5s4.7 6.6 8 9c3.3 2.3 7.3 4.1 12 5.5 4.7 1.3 9.3 2 14 2 10.6 0 19.6-2.7 26.9-8 7.3-5.3 11-11.6 11-18.9V824h16.9c2-0.7 4-1.7 6-3s4.2-2.8 6.5-4.5c2.3-1.7 4.5-2.8 6.5-3.5 0.7-2 4.5-10.3 11.4-24.9 7-14.6 11.5-24.4 13.5-29.4s6.2-14.8 12.5-29.4c6.3-14.6 10.6-25.9 12.9-33.9 2.3-8 5.8-19.1 10.5-33.4 4.7-14.3 7.6-26.5 9-36.9 1.3-10.3 2.6-22.1 4-35.4 1.3-13.3 1.7-26.1 1-38.4-1-12.6-2.7-24.8-5.3-36.7z" /></svg>