<?xml version="1.0" standalone="no"?><!DOCTYPE svg PUBLIC "-//W3C//DTD SVG 1.1//EN" "http://www.w3.org/Graphics/SVG/1.1/DTD/svg11.dtd"><svg class="icon" width="200px" height="200.00px" viewBox="0 0 1024 1024" version="1.1" xmlns="http://www.w3.org/2000/svg"><path fill="#ffffff" d="M572.8 192a42.88 42.88 0 0 0-59.52 0H512l-43.52 46.72a38.4 38.4 0 0 0 0 55.68l43.52 37.12-188.16 200.32-35.84-31.36a43.52 43.52 0 0 0-59.52 3.2l-43.52 46.72a39.04 39.04 0 0 0 0 56.96L451.84 832a43.52 43.52 0 0 0 60.16-4.48l43.52-46.72a39.04 39.04 0 0 0 0-56.96L512 693.12l188.16-200.32 36.48 31.36a42.88 42.88 0 0 0 59.52-3.2l43.52-46.72a38.4 38.4 0 0 0 0-55.68z m373.76 99.84l-76.16-64a37.76 37.76 0 0 0 0-55.04l-43.52-37.12a42.24 42.24 0 0 0-58.24 3.2l-76.16-64a43.52 43.52 0 0 0-59.52 3.2 39.04 39.04 0 0 0 0 56.96l256 218.88a43.52 43.52 0 0 0 59.52-3.2 39.04 39.04 0 0 0-4.48-56.32zM134.4 670.72a43.52 43.52 0 0 0-59.52 3.2 39.04 39.04 0 0 0 0 56.96l76.16 64a38.4 38.4 0 0 0 0 55.68l42.88 36.48a42.88 42.88 0 0 0 62.08-1.92l76.16 64a43.52 43.52 0 0 0 59.52-3.2 39.04 39.04 0 0 0 0-56.96z" /></svg>