<?xml version="1.0" standalone="no"?><!DOCTYPE svg PUBLIC "-//W3C//DTD SVG 1.1//EN"
        "http://www.w3.org/Graphics/SVG/1.1/DTD/svg11.dtd">
<svg class="icon" width="200px" height="200.00px" viewBox="0 0 1024 1024" version="1.1"
     xmlns="http://www.w3.org/2000/svg">
    <path fill="#ffffff"
          d="M893.612 819.375l-21.278-615c0-55.03-47.636-99.639-106.394-99.639H255.245c-58.759 0-106.393 44.61-106.393 99.64l-21.28 614.999h73.748c-0.535 2.812-0.874 5.697-0.874 8.667v20.225c0 25.529 20.696 46.225 46.226 46.225h66.452c25.532 0 46.227-20.697 46.227-46.225v-20.225c0-2.969-0.338-5.854-0.874-8.667H662.71c-0.535 2.812-0.873 5.697-0.873 8.667v20.225c0 25.529 20.696 46.225 46.227 46.225h66.452c25.53 0 46.228-20.697 46.228-46.225v-20.225c0-2.969-0.339-5.854-0.874-8.667h73.743zM258.87 723.008c-32.265 0-58.423-26.158-58.423-58.425 0-32.267 26.158-58.425 58.423-58.425 32.269 0 58.424 26.158 58.424 58.425 0 32.267-26.155 58.425-58.424 58.425zM217.49 510.92l7.918-252.475c0-55.682 20.278-77.707 71.538-77.707h427.01c51.26 0 71.538 22.025 71.538 77.707l8.201 252.475H217.49z m544.826 212.087c-32.267 0-58.425-26.158-58.425-58.425 0-32.267 26.158-58.425 58.425-58.425 32.267 0 58.425 26.158 58.425 58.425 0 32.267-26.158 58.425-58.425 58.425z"/>
</svg>