<?xml version="1.0" standalone="no"?><!DOCTYPE svg PUBLIC "-//W3C//DTD SVG 1.1//EN" "http://www.w3.org/Graphics/SVG/1.1/DTD/svg11.dtd"><svg class="icon" width="200px" height="200.00px" viewBox="0 0 1024 1024" version="1.1" xmlns="http://www.w3.org/2000/svg"><path fill="#ffffff" d="M175.786667 691.2c0 49.493333 39.253333 90.453333 88.746666 90.453333s90.453333-39.253333 90.453334-88.746666c0-49.493333-39.253333-90.453333-88.746667-90.453334-51.2-1.706667-90.453333 37.546667-90.453333 88.746667z m559.786666 0c0 49.493333 39.253333 90.453333 88.746667 90.453333 49.493333 0 90.453333-39.253333 90.453333-88.746666 0-49.493333-39.253333-90.453333-88.746666-90.453334-49.493333-1.706667-90.453333 37.546667-90.453334 88.746667z m0 0M925.013333 389.12l-97.28-1.706667c-68.266667-104.106667-157.013333-146.773333-276.48-146.773333-141.653333 0-257.706667 51.2-324.266666 126.293333l-83.626667 17.066667C54.613333 404.48 0 447.146667 0 515.413333v51.2c0 61.44 49.493333 112.64 126.293333 124.586667 5.12-73.386667 66.56-133.12 139.946667-133.12 75.093333 0 138.24 59.733333 139.946667 133.12h279.893333c5.12-73.386667 66.56-133.12 139.946667-133.12s133.12 54.613333 139.946666 126.293333c30.72-8.533333 58.026667-32.426667 58.026667-68.266666v-134.826667c3.413333-54.613333-32.426667-85.333333-98.986667-92.16z m-392.533333 37.546667c-8.533333 0-17.066667 1.706667-27.306667 1.706666-110.933333 8.533333-237.226667-27.306667-235.52-32.426666 8.533333-30.72 112.64-88.746667 238.933334-97.28 10.24 0 22.186667 0 32.426666-1.706667l-8.533333 129.706667z m37.546667-3.413334l10.24-124.586666c83.626667 8.533333 131.413333 44.373333 155.306666 105.813333 3.413333 6.826667-68.266667 11.946667-165.546666 18.773333z m0 0" /></svg>