<?xml version="1.0" standalone="no"?><!DOCTYPE svg PUBLIC "-//W3C//DTD SVG 1.1//EN" "http://www.w3.org/Graphics/SVG/1.1/DTD/svg11.dtd"><svg class="icon" width="200px" height="200.00px" viewBox="0 0 1024 1024" version="1.1" xmlns="http://www.w3.org/2000/svg"><path fill="#ffffff" d="M868.807 919.267H140.629c-58.254 0-109.227-50.973-109.227-109.227V227.498c0-58.254 50.973-109.227 109.227-109.227h728.178c58.254 0 109.227 50.973 109.227 109.227V810.04c0 58.254-50.973 109.227-109.227 109.227zM140.629 191.09c-21.845 0-36.409 14.563-36.409 36.409v582.542c0 21.845 14.563 36.409 36.409 36.409h728.178c21.845 0 36.409-14.563 36.409-36.409V227.499c0-21.845-14.563-36.409-36.409-36.409H140.629z m648.078 123.79c-36.409 0-65.536 29.127-65.536 65.536 0 14.563 7.282 21.845 14.563 36.409L621.225 526.052c-7.282 0-21.845-7.282-29.127-7.282-14.563 0-29.127 7.282-36.409 14.563l-101.945-65.536v-14.563c0-29.127-21.845-50.973-50.973-50.973s-58.254 21.845-58.254 50.973c0 7.282 0 14.563 7.282 21.845L235.29 591.588h-14.563c-36.409 0-65.536 29.127-65.536 65.536 0 36.409 29.127 65.536 65.536 65.536 36.409 0 65.536-29.127 65.536-65.536 0-14.563-7.282-29.127-14.563-43.691l109.227-109.227c7.282 0 14.563 7.282 21.845 7.282s21.845 0 29.127-7.282l101.945 65.536c0 7.282-7.282 14.563-7.282 21.845 0 36.409 29.127 65.536 65.536 65.536 36.409 0 65.536-29.127 65.536-65.536 0-14.563 0-21.845-7.282-29.127l116.509-116.509c7.282 0 14.563 7.282 21.845 7.282 36.409 0 65.536-29.127 65.536-65.536 0-43.691-29.127-72.818-65.536-72.818z" /></svg>