<?xml version="1.0" standalone="no"?><!DOCTYPE svg PUBLIC "-//W3C//DTD SVG 1.1//EN"
        "http://www.w3.org/Graphics/SVG/1.1/DTD/svg11.dtd">
<svg class="icon" width="200px" height="200.00px" viewBox="0 0 1024 1024" version="1.1"
     xmlns="http://www.w3.org/2000/svg">
    <path fill="#ffffff"
          d="M955.01170915 935.79882952H854.53482667c-10.25274311 0-18.64135111-10.99839715-18.64135112-21.34434703l-0.09320675 2.60978916c0.55924053-88.87264142-31.0378496-265.59264995-184.64258275-491.82874738l-0.46603378-0.55924053a9.67020089 9.67020089 0 0 1-1.77092836-5.49919858c0-4.10109725 6.33805938-7.5497472 9.87991609-8.85464178l-3.82147698-0.09320676c91.4358272-35.62828231 182.40562062 13.88780658 219.59511609 40.19541334l0.09320676-0.09320676a8.76143502 8.76143502 0 0 0 13.79459982-9.13426204l-0.18641351-0.93206756c-30.10578205-119.30464711-127.41363485-155.189248-164.60313031-164.60313031v-0.27962027a9.41388231 9.41388231 0 0 1-5.12637156-15.56552817c34.02046578-41.03427413 94.60485689-42.89840925 130.58266454-41.3138944v-0.09320676a8.85464178 8.85464178 0 0 0 8.76143502-8.85464177 8.92454685 8.92454685 0 0 0-3.26223645-6.9206016c-108.30624995-85.79681849-217.91739449-23.30168889-256.41178453-0.6524473l-1.11848107 0.93206756c3.82147698-4.75354453-1.95734187 0.18641351-3.63506347 0.18641351a9.32067555 9.32067555 0 0 1-9.32067555-9.41388231h-0.27962027c-3.54185671-72.25853725 7.08371342-110.03057493 19.85303894-132.70311822a8.78473671 8.78473671 0 0 0-10.99839716-12.39649849l0.09320676 0.18641351c-67.29527751 25.09591893-111.75489991 92.13487787-126.6679808 116.67155627v-1.79423005c-1.58451485 2.79620267-4.66033778 6.45456782-8.01578098 6.45456782a9.08765867 9.08765867 0 0 1-5.96523236-2.23696213l-0.18641351-1.49130809c-90.41055289-57.08913778-172.05967075-43.92368355-213.81629724-25.00271218l-0.37282703 0.09320676a8.57502151 8.57502151 0 0 0-5.2195783 8.94784854 8.85464178 8.85464178 0 0 0 7.7361607 8.01578097l0.46603378-0.18641351c36.44384142 5.8720256 94.04561635 27.23967431 120.32992142 104.27505778h2.42337565a9.39058062 9.39058062 0 0 1-5.96523235 12.67611876l-0.8388608 0.1864135c-34.67291307 12.02367147-156.58734933 71.69929671-96.84181903 254.10491734 0.93206755 3.91468373 4.38071751 6.89729991 8.57502151 6.89729991 4.10109725 0 7.5497472-2.79620267 8.48181476-6.61767965 17.80249031-42.52558222 60.95721813-127.64665173 128.90494293-126.90099768l-6.15164587 0.09320675c5.12637155 0 9.32067555 4.194304 9.32067556 9.41388231l-0.09320676 1.02527432c-4.00789049 41.68672142-6.43126613 205.80051627 96.84181903 253.82529706l-0.74565405 1.11848107c1.11848107 0.46603378 2.33016889 0.8388608 3.72827022 0.8388608a8.76143502 8.76143502 0 0 0 8.388608-10.99839716l-1.95734186-9.13426204c-11.09160391-54.54925369-26.09789155-183.89692871 58.53384249-201.69941903l0.55924053 3.1690297c0.46603378-0.09320675 0.74565405-3.16902969 1.21168782-3.1690297 4.10109725 0 7.5497472 3.07582293 8.76143502 6.80409316l0.37282703 0.46603378c29.08050773 69.27592107 94.7912704 221.83207822 47.16261831 463.09776498h-0.09320676c-1.49130809 8.76143502-9.13426205 17.89569707-18.26852408 17.89569706h-235.81309156c10.99839715-2.23696213 19.2937984-10.53236338 19.2937984-22.18320782h3.72827022c19.94624569 0 38.5875968-15.3092096 38.5875968-35.4418688v-218.22031644c0-20.1326592-26.0046848-29.08050773-43.71396836-29.08050774h-14.4470471l0.1864135-39.72937955c0-10.25274311-8.76143502-18.64135111-19.66662542-18.64135111h-96.93502578c-10.62557013 0-14.35384035 7.340032-14.35384035 16.40438898L249.80939662 630.4768l-19.38700515-0.09320675c-21.34434702 0-38.5875968 16.05486365-38.5875968 35.90790257v212.16187734c0 19.75983218 13.60818631 35.81469582 34.95253333 35.81469582h0.18641351c0 11.46443093 13.32856605 19.20059165 24.3269632 21.34434702h-182.21920711c-12.76932551 0-23.11527538 8.01578098-23.11527538 20.97152A23.23178382 23.23178382 0 0 0 69.0814976 980.00213334h885.8370048A23.30168889 23.30168889 0 0 0 978.03377778 956.583936c0.09320675-12.86253227-10.25274311-20.78510649-23.02206863-20.78510648zM351.68438045 698.19150792c0-5.21957831 6.52447289-9.60029582 14.63346062-9.60029583 8.01578098 0 14.63346062 4.194304 14.63346062 9.60029583v141.37134648c0 5.21957831-6.52447289 9.50708907-14.63346062 9.50708907s-14.63346062-4.194304-14.63346062-9.50708907v-141.37134648z m-72.7944761-96.98162916h72.88768285v29.10380942h-72.88768285v-29.12711111z m-29.08050773 96.98162916c0-5.21957831 6.52447289-9.60029582 14.63346063-9.60029583 8.01578098 0 14.63346062 4.194304 14.63346062 9.60029583v141.37134648c0 5.21957831-6.52447289 9.50708907-14.63346062 9.50708907s-14.63346062-4.194304-14.63346063-9.50708907v-141.37134648z m43.71396836 208.8763392h43.6207616c0 11.76735289 13.32856605 26.40081351 24.3269632 28.54456888h-93.20675556c10.9051904-2.14375538 25.25903075-16.777216 25.25903076-28.54456888z"/>
</svg>