<?xml version="1.0" standalone="no"?><!DOCTYPE svg PUBLIC "-//W3C//DTD SVG 1.1//EN" "http://www.w3.org/Graphics/SVG/1.1/DTD/svg11.dtd"><svg class="icon" width="200px" height="199.80px" viewBox="0 0 1025 1024" version="1.1" xmlns="http://www.w3.org/2000/svg"><path fill="#ffffff" d="M873.583 907.092H662.165c-18.815 0-34.133-15.402-34.133-34.259V469.271c0-18.898 15.318-34.216 34.133-34.216h16.526V256.938c1.207-19.564 13.778-56.653 53.364-81.712 13.279-8.491 25.808-18.523 37.005-27.514 22.603-18.066 38.962-31.178 57.153-31.178 13.903 0 37.088 6.993 37.088 53.822v264.699h10.282c18.815 0 34.133 15.318 34.133 34.216v403.562c0 18.94-15.318 34.259-34.133 34.259z m-44.956-352.28c0-13.611-10.99-24.684-24.684-24.684-13.654 0-24.726 10.99-24.726 24.684v223.49c0 13.61 11.072 24.683 24.726 24.683 13.611 0 24.684-11.03 24.684-24.684V554.812z m-369.43-74.843c-0.374 0.583-1.123 0.79-1.623 1.29 9.782 84.001 40.918 354.361 40.918 376.797 0 33.717-31.76 49.036-61.231 49.036H326.453c-28.014 0-47.953-7.202-59.359-21.563-9.324-11.696-10.53-25.35-8.408-34.216l40.918-368.222c-1.124-0.916-2.456-1.457-3.455-2.623L122.903 276.585c-7.077-8.367-7.868-20.397-1.874-29.554 3.497-5.287 86.998-130.497 250.588-130.497 163.173 0 250.13 123.379 253.834 128.582 6.16 8.991 5.703 21.021-1.165 29.554L459.198 479.97z m-40.918 92.326l-5.702-49.41h-67.85l-5.453 49.41h79.005z m-68.016-237.1c-3.205-13.28-16.609-21.355-29.804-18.191-13.279 3.247-21.396 16.567-18.232 29.887l21.895 90.328 50.908 0.458-24.767-102.483z m74.718-18.483c-13.445-2.539-26.266 6.452-28.805 19.856l-18.44 101.11h50.242l16.9-92.202c2.415-13.445-6.452-26.308-19.897-28.764z" /></svg>