<?xml version="1.0" standalone="no"?><!DOCTYPE svg PUBLIC "-//W3C//DTD SVG 1.1//EN" "http://www.w3.org/Graphics/SVG/1.1/DTD/svg11.dtd"><svg class="icon" width="200px" height="200.00px" viewBox="0 0 1024 1024" version="1.1" xmlns="http://www.w3.org/2000/svg"><path fill="#ffffff" d="M394.430816 475.744261l117.567649 0 0 127.166261-117.567649 0 0-127.166261ZM932.556846 845.537446l0-667.072845c0-48.060599-38.960337-87.021959-87.020936-87.021959l-667.072845 0c-48.061622 0-87.021959 38.960337-87.021959 87.021959l0 667.072845c0 48.059576 38.960337 87.020936 87.021959 87.020936l667.072845 0C893.59651 932.558381 932.556846 893.595998 932.556846 845.537446zM236.073158 602.910523l83.977623 0L320.050782 422.959058l191.947683 0 0-88.775906-112.768343 0c-25.605168 49.598628-75.991742 89.600691-151.159722 119.967302l0-50.386574c55.972802-36.777625 92.750427-92.750427 110.369713-167.955246l79.178317 0c-4.798283 17.620309-9.597589 32.804127-14.395872 45.588291l347.905688 0 0 52.785204L593.577458 334.182129l0 88.775906 163.154917 0 0 52.785204L593.577458 475.743238l0 127.166261 199.145619 0 0 52.786227-199.145619 0 0 131.963521-81.578993 0L511.998465 655.69675 236.073158 655.69675 236.073158 602.910523z" /></svg>