<?xml version="1.0" standalone="no"?><!DOCTYPE svg PUBLIC "-//W3C//DTD SVG 1.1//EN"
        "http://www.w3.org/Graphics/SVG/1.1/DTD/svg11.dtd">
<svg t="1584619635670" class="icon" viewBox="0 0 1134 1024" version="1.1" xmlns="http://www.w3.org/2000/svg"
     p-id="32313" xmlns:xlink="http://www.w3.org/1999/xlink" width="221.484375" height="200">
    <defs>
        <style type="text/css"></style>
    </defs>
    <path d="M945.157145 479.718387a434.563881 434.563881 0 1 1-327.273687-389.023438L636.79432 15.823374a511.751071 511.751071 0 1 0 385.935951 458.49191z"
          fill="#666666" p-id="32314"></path>
    <path d="M502.102673 521.013534m-77.187191 0a77.18719 77.18719 0 1 0 154.374381 0 77.18719 77.18719 0 1 0-154.374381 0Z"
          fill="#666666" p-id="32315"></path>
    <path d="M270.541102 521.013534m-77.18719 0a77.18719 77.18719 0 1 0 154.37438 0 77.18719 77.18719 0 1 0-154.37438 0Z"
          fill="#666666" p-id="32316"></path>
    <path d="M733.664243 521.013534m-77.18719 0a77.18719 77.18719 0 1 0 154.374381 0 77.18719 77.18719 0 1 0-154.374381 0Z"
          fill="#666666" p-id="32317"></path>
    <path d="M823.58732 196.441399l63.679432-68.310663-56.346649-52.48729-153.216573 163.636844 155.532189 155.918124 54.802905-54.416969-67.152856-67.152856h312.994057v-77.18719h-310.292505z"
          fill="#666666" p-id="32318"></path>
</svg>