<?xml version="1.0" standalone="no"?><!DOCTYPE svg PUBLIC "-//W3C//DTD SVG 1.1//EN" "http://www.w3.org/Graphics/SVG/1.1/DTD/svg11.dtd"><svg class="icon" width="200px" height="200.00px" viewBox="0 0 1024 1024" version="1.1" xmlns="http://www.w3.org/2000/svg"><path fill="#ffffff" d="M249.286 189.604c30.4-54.042 92.032-81.059 153.674-67.548 53.19 11.817 101.32 59.104 100.472 108.915-0.85 18.577-21.955 36.31-33.772 53.194 67.544-12.666 135.932 0 202.636 59.104-86.965 6.76-128.342 68.393-182.375 114.83-26.177 21.947-57.41 57.416-90.338 3.379-3.382-5.907-20.266-5.907-30.395-4.222-52.353 7.6-84.432-21.95-83.587-74.304 0-16.04-5.911-35.456-16.884-46.438-39.692-44.75-48.136-96.254-19.43-146.91zM695.1 382.947c35.46 16.049 37.989 54.043 16.883 85.286-43.91 66.695-111.458 85.276-187.446 83.579 32.933-54.03 60.794-108.067 97.939-154.505 12.67-15.2 53.202-22.8 72.624-14.36zM19.63 664.114c21.95-40.537 70.925-69.228 112.297-97.099 51.504-34.611 107.231-63.326 172.242-101.32 28.705 10.129 71.77 31.234 118.208 38.839 22.8 3.377 53.194-15.195 75.144-31.24 32.083-22.798 59.1-52.348 87.814-78.52-11.822 74.303-48.971 126.639-119.053 147.754C410.56 559.41 352.3 567.855 297.418 587.28c-50.66 18.568-102.165 42.216-145.225 73.455-33.772 24.488-55.727 64.166-88.659 103.858-64.17 0.836-75.988-42.22-43.905-100.48z m69.236 238.101L18.785 775.562c59.104 24.48 81.059 66.7 70.081 126.653zM115.883 896.3c75.988 23.648 149.443 33.772 216.147-15.195l-0.845 0.849 0.845-0.85c-39.683 7.596-80.21 23.64-118.204 19.418-33.772-3.378-75.148-21.946-95.41-47.278-37.994-48.98-34.616-108.08 13.51-151.14 38.844-34.613 83.589-65.007 131.715-85.277 157.883-65.006 315.774-45.599 473.666 15.195-155.359 54.037-287.913 141.852-406.966 249.932l91.183-37.159C327.812 951.186 148.81 979.896 115.883 896.3zM885.07 862.528c-17.738 16.888-44.75 32.932-68.398 33.772-59.94 2.542-120.733-1.68-180.681-7.604-10.973-0.845-19.417-22.79-32.932-38.839-64.167 62.487-117.36-33.772-181.53-10.124l-5.063-11.826c37.999-25.328 75.148-51.491 114.827-74.3 7.604-4.226 24.488 5.063 36.305 8.44 32.088 8.44 67.548 30.395 94.565 22.808 73.46-21.114 135.941 19.408 204.33 22.786 37.993 0.005 47.282 27.875 18.577 54.887zM983.008 765.43c-4.222 48.98-35.466 57.42-79.357 33.771-15.204-8.444-32.936-12.661-50.665-14.346-68.388-6.764-131.723-48.98-205.178-20.265-19.421 7.604-49.811-14.355-75.144-22.8l-0.849-16.888 211.934-86.12 4.227-12.667-162.114-59.944c42.22-32.932 90.343-69.237 135.937-106.387 30.399-24.488 61.642-41.376 101.32-20.266 38.848 21.11 65.869 53.194 60.798 97.099-5.915 49.82 13.51 86.97 35.465 128.337 16.875 29.55 27.008 67.548 23.626 100.476zM948.391 546.75C932.348 431.074 851.298 388.018 770.234 420.1c-27.861-33.772-53.184-69.237-83.579-100.471-17.737-18.577-42.22-37.999-65.86-42.22-61.641-10.978-95.418-36.306-106.39-103.854C504.276 115.3 528.76 64.64 587.019 82.373c59.105 16.888 117.36 24.483 176.46 34.612 54.042 9.297 79.37 59.953 75.988 119.902 109.769 21.105 170.557 75.148 180.69 157.042 8.444 75.988-14.355 125.808-71.766 152.82z" /></svg>