<?xml version="1.0" standalone="no"?><!DOCTYPE svg PUBLIC "-//W3C//DTD SVG 1.1//EN" "http://www.w3.org/Graphics/SVG/1.1/DTD/svg11.dtd"><svg class="icon" width="200px" height="200.00px" viewBox="0 0 1024 1024" version="1.1" xmlns="http://www.w3.org/2000/svg"><path fill="#ffffff" d="M614.52 205.414C460.236 244.6 346.06 384.444 346.06 550.946c0 10.001 0.41 19.934 1.23 29.696h-74.48a427.064 427.064 0 0 1-1.023-29.696c0-186.129 118.067-344.678 283.375-404.89l-5.018-5.017A74.274 74.274 0 1 1 655.172 35.977l231.083 231.082a74.274 74.274 0 1 1-105.028 105.063l-21.573-21.573a208.077 208.077 0 0 0 5.7 248.525l-58.538 45.739a282.35 282.35 0 0 1-0.239-347.341l-92.058-92.058zM281.89 1024a281.873 281.873 0 1 1 0-563.78 281.873 281.873 0 0 1 0 563.78zM76.68 686.353a35.972 35.972 0 0 0 6.895 41.267 16.725 16.725 0 0 0 26.898-4.608 268.63 268.63 0 0 1 52.224-74.547 263.441 263.441 0 0 1 73.864-51.678 16.623 16.623 0 0 0 4.608-26.794 36.181 36.181 0 0 0-41.37-6.93 263.407 263.407 0 0 0-71.816 50.62c-20.48 20.48-37.615 44.715-51.302 72.704z m723.764 293.274a222.822 222.822 0 1 1 0-445.645 222.822 222.822 0 0 1 0 445.645z" /></svg>