<?xml version="1.0" standalone="no"?><!DOCTYPE svg PUBLIC "-//W3C//DTD SVG 1.1//EN" "http://www.w3.org/Graphics/SVG/1.1/DTD/svg11.dtd"><svg class="icon" width="200px" height="200.00px" viewBox="0 0 1024 1024" version="1.1" xmlns="http://www.w3.org/2000/svg"><path fill="#ffffff" d="M512 640a128 128 0 1 0 128 128 128 128 0 0 0-128-128z m0 170.666667a42.666667 42.666667 0 1 1 42.666667-42.666667 42.666667 42.666667 0 0 1-42.666667 42.666667z m0-341.333334a301.226667 301.226667 0 0 0-211.2 87.466667 42.666667 42.666667 0 0 0 0 60.16 42.666667 42.666667 0 0 0 60.16 0 213.333333 213.333333 0 0 1 302.08 0 42.666667 42.666667 0 0 0 29.866667 12.8 42.666667 42.666667 0 0 0 32.426666-72.96A301.226667 301.226667 0 0 0 512 469.333333z m0-170.666666a472.746667 472.746667 0 0 0-331.946667 137.386666 42.666667 42.666667 0 0 0 60.586667 60.586667 384 384 0 0 1 542.72 0 42.666667 42.666667 0 0 0 30.293333 12.373333 42.666667 42.666667 0 0 0 30.293334-12.373333 42.666667 42.666667 0 0 0 0-60.586667A472.746667 472.746667 0 0 0 512 298.666667z m452.693333 16.64a640 640 0 0 0-905.386666 0 42.666667 42.666667 0 0 0 60.586666 60.586666 554.666667 554.666667 0 0 1 784.213334 0 42.666667 42.666667 0 0 0 60.586666 0 42.666667 42.666667 0 0 0 0-60.586666z" /></svg>