<?xml version="1.0" standalone="no"?><!DOCTYPE svg PUBLIC "-//W3C//DTD SVG 1.1//EN" "http://www.w3.org/Graphics/SVG/1.1/DTD/svg11.dtd"><svg class="icon" width="200px" height="200.00px" viewBox="0 0 1024 1024" version="1.1" xmlns="http://www.w3.org/2000/svg"><path fill="#ffffff" d="M163.676833 500.336114 392.174281 500.336114c0 0.063737-0.127474 0.063737-0.127474 0.254948 0 64.756878 51.117142 117.276236 114.089381 117.276236s113.89817-52.519358 113.89817-117.276236c0-0.191211-0.254948-0.191211-0.254948-0.254948l230.664509 0c14.21337 0 26.132205 5.672601 35.246608 16.82659 9.305614 11.026516 12.68368 24.220092 10.452882 38.497199l-88.148388 396.890825c-3.760488 37.15872-38.815884 71.449272-92.737458 71.449272L298.735715 1024c-68.64484-1.97585-88.849496-48.185236-92.546247-71.449272L117.977343 555.659903C115.682808 541.382796 119.315822 528.189219 128.430225 517.162704 137.544628 506.008714 149.5272 500.336114 163.676833 500.336114L163.676833 500.336114 163.676833 500.336114zM197.83991 429.078053 197.393751 429.078053c-23.009088 0-42.130213-16.762853-45.69949-40.090626L72.469065 127.346695C70.17453 113.133325 73.935018 100.067223 83.049421 89.040707c9.17814-11.026516 21.160712-16.762853 35.182871-16.762853l0.382423 0c23.009088 0 42.130213 16.890327 45.69949 40.2181l79.225196 261.513258c2.294535 14.404581-1.465953 27.470683-10.580356 38.433462C223.780904 423.532927 211.798332 429.078053 197.83991 429.078053L197.83991 429.078053 197.83991 429.078053zM325.887713 167.309847 325.569028 167.309847 325.441554 167.309847 325.887713 167.309847 325.887713 167.309847zM349.088012 429.078053l0.254948 0L349.470434 429.078053 349.088012 429.078053 349.088012 429.078053zM349.406697 429.078053c-23.072825 0-42.19395-17.209013-45.635753-40.66426L280.060749 221.805054C278.021163 207.591684 281.781651 194.653056 290.832317 183.754015 299.882983 173.046184 311.73808 167.501058 325.569028 167.373584 348.833064 167.437321 367.954189 184.51886 371.268517 208.037844l23.710195 166.608739C397.0183 388.859953 393.449023 401.798581 384.270883 412.633885 375.092742 423.532927 363.237645 429.078053 349.406697 429.078053L349.406697 429.078053 349.406697 429.078053zM507.155982 429.970372c-12.874891 0-23.710195-4.525333-32.824599-13.958422-9.050666-9.241877-13.639736-20.395867-13.639736-33.589444L460.691647 119.252085c0-26.259679 20.714552-47.547865 46.464335-47.547865 25.558571 0 46.33686 21.288186 46.33686 47.547865l0 263.106685c0 13.257314-4.652807 24.347566-13.639736 33.589444C530.866177 425.445039 519.839661 429.970372 507.155982 429.970372L507.155982 429.970372 507.155982 429.970372zM700.852981 388.605004c-3.441803 23.455247-22.626665 40.536786-45.826964 40.536786l-0.637371 0c-13.958422 0-25.813519-5.545126-34.991659-16.444168C610.282584 401.862318 606.585833 388.796216 608.752894 374.519109l73.935018-333.5999c3.378065-23.455247 22.562928-40.536786 45.826964-40.536786l0.509897 0c13.958422 0 25.877256 5.608863 35.119134 16.444168 9.114403 10.835304 12.68368 23.901407 10.70783 38.178514L700.852981 388.605004 700.852981 388.605004zM924.825096 178.909996l-77.313084 214.921449c-5.481389 21.160712-23.264036 35.437819-44.552222 35.437819L800.091622 429.269264c-14.787004 0-27.789369-6.437446-36.585087-18.547492-9.305614-12.173783-11.982572-26.45089-8.222084-41.237894l76.930661-214.985186c5.481389-21.288186 23.39151-35.565293 44.679696-35.565293l3.250591 0c14.850741 0 27.661895 6.501183 36.712561 18.611229C925.781153 149.845886 928.713059 164.122993 924.825096 178.909996L924.825096 178.909996 924.825096 178.909996z" /></svg>