<?xml version="1.0" standalone="no"?><!DOCTYPE svg PUBLIC "-//W3C//DTD SVG 1.1//EN"
        "http://www.w3.org/Graphics/SVG/1.1/DTD/svg11.dtd">
<svg class="icon" width="200px" height="200.00px" viewBox="0 0 1024 1024" version="1.1"
     xmlns="http://www.w3.org/2000/svg">
    <path fill="#ffffff"
          d="M752.139289 113.505146c-10.538503 6.743229-23.318864 10.114844-38.341085 10.114844H303.361478c-15.039873 0-26.690479-3.742316-34.951817-11.226948C260.130669 104.890758 256 94.775914 256 82.030857V41.57148c0-13.468807 4.519023-23.777828 13.539416-30.891758C278.55981 3.548139 290.581117 0 305.62099 0h408.177214c15.781275 0 28.755814 3.742316 38.905963 11.226948 10.132497 7.502284 15.216397 18.376183 15.216397 32.604044v37.087762c0 14.986916-5.260425 25.843162-15.781275 32.586392z m-12.409661 193.311796a16935.479667 16935.479667 0 0 1-18.605664 109.003775c-6.390181 36.717061-11.844783 67.061594-16.346154 91.033599a1681.923839 1681.923839 0 0 0-12.40966 75.870158 12619.671568 12619.671568 0 0 0-10.715027 77.547139 8057.13541 8057.13541 0 0 0-9.020394 69.109276c-2.630213 20.988743-5.066248 37.087762-7.325759 48.332362-3.000914 19.470634-11.279905 32.957093-24.801669 40.459377-13.539416 7.484632-29.320692 13.486459-47.361478 17.98783-32.321605 8.226034-62.383699 12.162527-90.203934 11.791825a359.068145 359.068145 0 0 1-82.313297-10.679722 437.74504 437.74504 0 0 1-27.626058-7.872985 119.860022 119.860022 0 0 1-25.366546-11.226948 73.557689 73.557689 0 0 1-19.170543-16.293195c-5.260425-6.372528-8.278991-14.422038-9.020393-24.166182a624.825527 624.825527 0 0 1-3.954145-35.975659c-1.129756-13.468807-2.436036-30.521057-3.936493-51.121446a4190.45817 4190.45817 0 0 0-6.213656-74.175525c-2.630213-28.844076-5.825303-63.495802-9.585271-103.955179a2040.09171 2040.09171 0 0 0-14.65152-121.378131A3335.038908 3335.038908 0 0 0 261.631126 176.43607h500.658312c-7.519937 45.719802-15.039873 89.16244-22.55981 130.380872zM416.990191 337.461566a32.657001 32.657001 0 0 0-35.410781-29.691392 32.621697 32.621697 0 0 0-29.850265 35.304866l25.401852 294.266062a32.745264 32.745264 0 0 0 35.463738 29.691393 32.657001 32.657001 0 0 0 29.81496-35.287214L416.990191 337.461566z m27.308314 559.387957c18.040787 2.983261 36.081574 4.483718 54.122361 4.483718 18.040787 0 35.905049-1.500457 53.575135-4.483718 17.652433-3.000914 33.627885-6.372528 47.908703-10.114844a521.770622 521.770622 0 0 0 48.491235-15.74597v65.190436c0 9.744143-0.370701 18.164354-1.129756 25.278284a37.952731 37.952731 0 0 1-6.760882 18.552707c-3.759968 5.242773-9.391094 10.114844-16.911031 14.598563-7.519937 4.50137-18.42914 9.373442-32.709959 14.616214a199.119447 199.119447 0 0 1-45.101967 11.2446c-16.54033 2.241859-33.063007 3.371615-49.603337 3.371615s-32.886483-1.323932-49.056112-3.936493a285.016187 285.016187 0 0 1-44.537089-10.679722c-24.060267-8.243686-39.082487-17.793653-45.101967-28.649899-6.01948-10.873899-9.020393-21.553621-9.020394-32.039166v-77.547139c15.039873 6.001827 30.821148 11.2446 47.361479 15.74597 14.280818 3.742316 30.432795 7.113931 48.473581 10.114844z"/>
</svg>