<?xml version="1.0" standalone="no"?><!DOCTYPE svg PUBLIC "-//W3C//DTD SVG 1.1//EN"
        "http://www.w3.org/Graphics/SVG/1.1/DTD/svg11.dtd">
<svg class="icon" width="200px" height="200.00px" viewBox="0 0 1024 1024" version="1.1"
     xmlns="http://www.w3.org/2000/svg">
    <path fill="#ffffff"
          d="M694.4 270.4c155.2 0 269.6-53.6 289.6-108C984 95.2 848.8 48 694.4 48c-161.6 0-296.8 47.2-296.8 114.4 20 54.4 134.4 108 296.8 108z m-68 432v148h67.2c161.6 0 289.6-40.8 289.6-94.4V634.4c-67.2 47.2-168.8 74.4-289.6 74.4-20 0-46.4 0-67.2-6.4z m0-196v148c20 0 47.2 6.4 67.2 6.4 155.2 0 269.6-53.6 289.6-108V439.2c-67.2 47.2-168.8 74.4-289.6 74.4-20 0-46.4 0-67.2-7.2z m33.6-40h27.2c155.2 0 269.6-53.6 289.6-108V244c-60.8 40.8-161.6 74.4-283.2 74.4-128 0-229.6-33.6-296.8-74.4v74.4c135.2 12.8 256.8 60 263.2 148zM330.4 351.2C175.2 358.4 40 405.6 40 466.4c20 60.8 135.2 108 289.6 108S600 520 620 466.4c0-60.8-128-115.2-289.6-115.2zM40 560.8v121.6C60 736 175.2 789.6 330.4 789.6S600 736 620 681.6V560.8c-60.8 47.2-161.6 74.4-289.6 74.4C201.6 634.4 107.2 608 40 560.8zM40 776v121.6c0 53.6 135.2 94.4 289.6 94.4s289.6-40.8 289.6-94.4V776c-60.8 40.8-161.6 74.4-289.6 74.4-120.8 0-228.8-27.2-289.6-74.4z"/>
</svg>