<?xml version="1.0" standalone="no"?><!DOCTYPE svg PUBLIC "-//W3C//DTD SVG 1.1//EN"
        "http://www.w3.org/Graphics/SVG/1.1/DTD/svg11.dtd">
<svg class="icon" width="200px" height="200.00px" viewBox="0 0 1024 1024" version="1.1"
     xmlns="http://www.w3.org/2000/svg">
    <path fill="#ffffff"
          d="M511.97619 0C229.67619 0 0 229.690476 0 512s229.67619 512 511.97619 512c282.309524 0 512.02381-229.666667 512.02381-512C1023.995238 229.690476 794.285714 0 511.97619 0L511.97619 0zM313.319048 628.690476l31.628571 16.619048c-21.795238 37.52381-42.166667 68.452381-61.104762 92.738095-13.22381-10.357143-22.7-17.333333-28.414286-20.904762C276.152381 693.190476 295.452381 663.714286 313.319048 628.690476zM259.17619 286.119048 433.952381 286.119048l0-41.809524 39.128571 0 0 41.809524 114.2 0 0-41.809524 39.119048 0 0 41.809524 159.238095 0 0 35.928571-159.238095 0 0 38.595238-39.119048 0L587.280952 322.047619 473.080952 322.047619l0 38.595238L433.952381 360.642857 433.952381 322.047619 259.17619 322.047619 259.17619 286.119048zM259.714286 493.595238l78.809524 0c-11.080952-16.428571-22.509524-32.166667-34.309524-47.166667l26.809524-19.309524c13.928571 14.642857 27.509524 31.095238 40.738095 49.309524l-24.128571 17.166667 71.309524 0c12.142857-20.380952 24.119048-42.357143 35.914286-65.928571l35.380952 15c-11.795238 17.880952-23.580952 34.857143-35.380952 50.928571l79.880952 0 0 34.309524L259.714286 527.904762 259.714286 493.595238zM270.438095 575.071429l108.295238 0 0-40.190476 36.452381 0 0 40.190476 104 0 0 33.238095L415.190476 608.309524l0 101.857143c0 36.119048-16.271429 54.166667-48.785714 54.166667l-52 0c-1.438095-12.52381-3.404762-25.380952-5.904762-38.619048 19.652381 1.428571 35.738095 2.166667 48.247619 2.166667 14.652381 0 21.985714-8.047619 21.985714-24.142857l0-95.428571L270.438095 608.309524 270.438095 575.071429zM272.580952 391.190476l112.580952 0c-11.080952-18.571429-20.557143-33.761905-28.414286-45.547619l31.095238-16.095238c14.652381 21.809524 25.2 38.428571 31.628571 49.857143l-25.738095 11.785714 128.666667 0 0 33.238095L272.580952 424.428571 272.580952 391.190476zM430.190476 644.785714l24.128571-22c20.72381 18.238095 39.485714 36.833333 56.285714 55.761905l-26.795238 23.047619C467 682.666667 449.128571 663.714286 430.190476 644.785714zM771.690476 405.142857c-39.666667 6.785714-99.714286 13.571429-180.119048 20.357143l0 78.809524 192.97619 0 0 35.928571-77.190476 0 0 229.97619-37.52381 0L669.833333 540.238095 591.571429 540.238095c-0.380952 94.714286-24.857143 170.119048-73.452381 226.238095-10.72381-8.595238-22.509524-17-35.380952-25.190476 47.52381-48.619048 71.309524-115.642857 71.309524-201.047619L554.047619 392.809524c80.404762-4.285714 145.452381-12.333333 195.119048-24.119048L771.690476 405.142857z"/>
</svg>