<?xml version="1.0" standalone="no"?><!DOCTYPE svg PUBLIC "-//W3C//DTD SVG 1.1//EN" "http://www.w3.org/Graphics/SVG/1.1/DTD/svg11.dtd"><svg class="icon" width="200px" height="200.00px" viewBox="0 0 1024 1024" version="1.1" xmlns="http://www.w3.org/2000/svg"><path fill="#ffffff" d="M363.807 236.913a157.491 157.491 0 0 1 112.455 150.896V512H161.423V387.81A157.491 157.491 0 0 1 273.86 236.932V129.024h89.927v107.889h0.02z m0-130.417h-89.948V87.941c0-14.643 11.878-26.501 26.5-26.501h36.947c14.643 0 26.5 11.878 26.5 26.501v18.555z m112.455 450.56v352.502a53.002 53.002 0 0 1-53.002 53.002H214.426a53.002 53.002 0 0 1-53.023-53.002V557.056h314.839z m427.275 22.528H543.703v-59.638a53.002 53.002 0 0 1 53.023-53.002h253.788a53.002 53.002 0 0 1 53.023 53.002v59.638z m0 45.056v284.918a53.002 53.002 0 0 1-53.023 53.002H596.726a53.002 53.002 0 0 1-53.002-53.002V624.64h359.813zM755.712 761.979a22.467 22.467 0 0 0-31.805 0l-95.622 95.641a22.487 22.487 0 0 0 31.806 31.785l95.641-95.62a22.467 22.467 0 0 0 0-31.806z m63.693-15.975a22.528 22.528 0 0 0-31.847 31.847l23.88-23.88a22.528 22.528 0 0 0 31.846-31.846l-23.88 23.88z m-23.86-23.859a22.528 22.528 0 0 0-31.846 31.867l23.88-23.88a22.528 22.528 0 0 0 31.846-31.866l-23.88 23.88z m-23.838-23.859a22.528 22.528 0 0 0-31.867 31.867l23.88-23.88a22.528 22.528 0 0 0 31.867-31.867l-23.88 23.88z" /></svg>