<?xml version="1.0" standalone="no"?><!DOCTYPE svg PUBLIC "-//W3C//DTD SVG 1.1//EN"
        "http://www.w3.org/Graphics/SVG/1.1/DTD/svg11.dtd">
<svg class="icon" width="200px" height="200.00px" viewBox="0 0 1024 1024" version="1.1"
     xmlns="http://www.w3.org/2000/svg">
    <path fill="#ffffff"
          d="M846.866209 287.061948l-167.80175 0L679.064458 175.193091c0-30.765701-25.168216-55.933917-55.933917-55.933917L399.393851 119.259174c-30.765701 0-55.933917 25.168216-55.933917 55.933917l0 111.868857L175.65716 287.061948c-61.532425 0-111.867834 50.334385-111.867834 111.867834l0 447.472358c0 61.533448 50.334385 111.867834 111.867834 111.867834l671.209048 0c61.533448 0 111.868857-50.334385 111.868857-111.867834L958.735066 398.929782C958.735066 337.397357 908.399657 287.061948 846.866209 287.061948M399.393851 175.193091l223.736691 0 0 111.868857L399.393851 287.061948 399.393851 175.193091zM734.998375 678.601412l-167.80175 0 0 167.800727-111.867834 0L455.328791 678.601412l-167.80175 0L287.527041 566.733579l167.80175 0L455.328791 398.929782l111.867834 0 0 167.803797 167.80175 0L734.998375 678.601412z"/>
</svg>