<?xml version="1.0" standalone="no"?><!DOCTYPE svg PUBLIC "-//W3C//DTD SVG 1.1//EN" "http://www.w3.org/Graphics/SVG/1.1/DTD/svg11.dtd"><svg class="icon" width="200px" height="200.00px" viewBox="0 0 1024 1024" version="1.1" xmlns="http://www.w3.org/2000/svg"><path fill="#ffffff" d="M926.72 297.472c-112.64 0-203.264-91.648-203.264-203.264 0-20.48-16.896-37.376-37.376-37.376s-37.376 16.896-37.376 37.376v384c-37.376-32.256-86.016-52.224-138.752-52.224-117.248 0-212.992 95.744-212.992 212.992s95.744 212.992 212.992 212.992c114.688 0 208.384-91.648 212.48-204.8 0-1.536 0.512-2.56 0.512-4.096V283.136c50.688 54.784 122.88 89.088 203.264 89.088 20.48 0 37.376-16.896 37.376-37.376s-16.384-37.376-36.864-37.376z m-416.256 481.28c-76.8 0-138.752-61.952-138.752-138.752 0-76.8 61.952-138.752 138.752-138.752s138.752 61.952 138.752 138.752c0 76.8-62.464 138.752-138.752 138.752zM805.888 775.68c-7.68 0-14.848-2.56-20.48-8.192-10.752-11.264-10.752-28.672 0.512-39.936 61.952-58.88 0.512-132.096-2.048-135.168-9.728-11.776-8.192-29.696 3.584-39.424 11.776-9.728 29.696-8.192 39.424 3.584 34.304 39.936 77.824 136.192-2.048 212.48-4.608 4.096-11.776 6.656-18.944 6.656zM924.672 848.384c-7.68 0-14.848-2.56-20.48-8.192-10.752-11.264-10.752-28.672 0.512-39.936 128.512-122.88 3.584-273.408-2.048-280.064-9.728-11.776-8.192-29.696 3.584-39.424 11.776-9.728 29.696-8.192 39.424 3.584 57.856 67.584 131.584 229.888-2.048 357.376-4.608 3.584-11.776 6.656-18.944 6.656zM218.112 755.2c-7.68 0-15.36-3.584-20.992-9.728-34.304-39.936-77.824-136.192 2.048-212.48 11.264-10.752 28.672-10.752 39.936 0.512 10.752 11.264 10.752 28.672-0.512 39.936-59.904 56.832-4.096 127.488 2.048 135.168 9.728 11.776 8.192 29.696-3.584 39.424-6.144 4.608-12.8 7.168-18.944 7.168zM99.328 827.392c-7.68 0-16.384-3.584-20.992-9.728-57.856-68.096-131.584-230.4 2.048-357.376 11.264-10.752 28.672-10.752 39.936 0.512 10.752 11.264 10.752 28.672-0.512 39.936-128 122.368-3.584 273.408 2.048 280.064 9.728 11.776 8.192 29.696-3.584 39.424-5.632 4.608-11.776 7.168-18.944 7.168z" /></svg>