<?xml version="1.0" standalone="no"?><!DOCTYPE svg PUBLIC "-//W3C//DTD SVG 1.1//EN"
        "http://www.w3.org/Graphics/SVG/1.1/DTD/svg11.dtd">
<svg class="icon" width="200px" height="200.00px" viewBox="0 0 1024 1024" version="1.1"
     xmlns="http://www.w3.org/2000/svg">
    <path fill="#ffffff"
          d="M332.022 212.91a48.61 48.61 0 0 1 8.765 32.113h6.8c0-30.659 17.039-44.278 37.949-44.278v-6.8c-19.456 0.492-36.966-13.127-36.966-43.786v-6.799h-7.291v6.8c0 30.658-17.04 44.277-37.95 44.277v6.8a36.475 36.475 0 0 1 28.693 11.673z m-46.695 227.144h9.728c0-34.53 11.674-68.096 62.26-69.059v-9.236a58.86 58.86 0 0 1-62.26-68.096v-9.728h-9.728v9.728c0 43.765-24.78 68.096-59.33 68.096v10.199c53.494 0 59.33 24.33 59.33 68.096zM901.12 386.56c0.246-128.676-103.854-233.185-232.53-233.431a232.98 232.98 0 0 0-159.99 63.18l329.278 329.32a232.018 232.018 0 0 0 63.242-159.09zM185.63 733.368a97.28 97.28 0 0 0-23.346 110.9v6.328l-39.404 42.803 28.201 28.201 40.387-40.366a97.28 97.28 0 0 0 114.79 0l11.182-8.274 255.836-223.744L414.72 490.66 185.63 733.348z m655.668-115.773v-9.728h-10.711v9.728c0 43.786-24.31 68.096-54.477 68.096h-4.854v10.71h4.854c30.167 0 54.477 24.31 54.477 68.097h9.728c0-43.786 24.33-68.096 54.477-68.096h6.328V685.69h-4.874c-30.638 0-54.948-24.31-54.948-68.096zM475.996 253.768a231.526 231.526 0 0 0-32.092 194.56l160.993 161.976c66.396 18.842 137.728 7.066 194.56-32.113l-323.46-324.403z"/>
</svg>